# xmcd
#
# Track frame offsets:
#	150
#	20515
#	31908
#	44950
#	54886
#	65303
#	78222
#	89763
#	104297
#	114788
#	125005
#	136098
#	151189
#	164382
#	179334
#	191721
#	204826
#	217818
#	230510
#	244895
#	260510
#	272714
#	284754
#	298733
#	314869
#
# Disc length: 4372 seconds
#
# Revision: 0
# Processed by: cddbd v1.4PL0 Copyright (c) Steve Scherf et al.
# Submitted via: EasyCDDAExtractor 4.6.0.1
#
DISCID=72111219
DTITLE=100 Folk Celsius - 25 év - 25 dal gyerekeknek
DYEAR=2001
DGENRE=country
TTITLE0=Paff, a bûvös sárkány
TTITLE1=Három rigó
TTITLE2=Hány lába van?
TTITLE3=Pocok és az elefánt
TTITLE4=A nagy ho-ho-ho horgász
TTITLE5=Észak
TTITLE6=Túró Rudi
TTITLE7=Kis herceg
TTITLE8=Kiváncsi Fáncsi
TTITLE9=BMX, a csodabringa
TTITLE10=Nyelvtörõ
TTITLE11=Miki Manó meséi
TTITLE12=Zebrabál
TTITLE13=Európa, Ázsia, Afrika...
TTITLE14=Balra nézek, jobbra nézek
TTITLE15=Ha valakinek az járna a fejében
TTITLE16=A tükör
TTITLE17=Tök jó
TTITLE18=Indulhat a buli
TTITLE19=Nyunyó a hunyó
TTITLE20=A kutyám meg én
TTITLE21=Énekelj kishaver
TTITLE22=Garfield csak egy van a világon
TTITLE23=Lasagna
TTITLE24=Szülidal
EXTD=
EXTT0=
EXTT1=
EXTT2=
EXTT3=
EXTT4=
EXTT5=
EXTT6=
EXTT7=
EXTT8=
EXTT9=
EXTT10=
EXTT11=
EXTT12=
EXTT13=
EXTT14=
EXTT15=
EXTT16=
EXTT17=
EXTT18=
EXTT19=
EXTT20=
EXTT21=
EXTT22=
EXTT23=
EXTT24=
PLAYORDER=
